<svg width="260" height="194" viewBox="0 0 260 194" fill="none" xmlns="http://www.w3.org/2000/svg">
<rect x="31" y="18" width="176" height="44.6083" rx="10.2194" fill="#202020"/>
<circle cx="44.3825" cy="34.6267" r="6.48848" stroke="#616161" stroke-width="0.81106"/>
<rect x="57.765" y="29.3549" width="108.682" height="9.73272" rx="4.86636" fill="#353535"/>
<rect x="57.765" y="45.576" width="60.0184" height="6.48848" rx="3.24424" fill="#353535"/>
<rect x="67" y="74.6083" width="176" height="44.6083" rx="10.2194" fill="#202020"/>
<circle cx="80.3825" cy="91.235" r="6.89401" fill="#9B60F7"/>
<path d="M76 91.5L78.6635 94L84 89" stroke="white" stroke-width="1.5" stroke-linecap="round" stroke-linejoin="round"/>
<rect x="93.765" y="85.9631" width="108.682" height="9.73272" rx="4.86636" fill="#353535"/>
<rect x="93.765" y="102.184" width="60.0184" height="6.48848" rx="3.24424" fill="#353535"/>
<rect x="38" y="131.217" width="176" height="44.6083" rx="10.2194" fill="#202020"/>
<circle cx="51.3825" cy="147.843" r="6.48848" stroke="#616161" stroke-width="0.81106"/>
<rect x="64.765" y="142.571" width="108.682" height="9.73272" rx="4.86636" fill="#353535"/>
<rect x="64.765" y="158.793" width="60.0184" height="6.48848" rx="3.24424" fill="#353535"/>
</svg>
